<?xml version="1.0" standalone="no"?><!DOCTYPE svg PUBLIC "-//W3C//DTD SVG 1.1//EN" "http://www.w3.org/Graphics/SVG/1.1/DTD/svg11.dtd"><svg class="icon" width="48px" height="48.00px" viewBox="0 0 1024 1024" version="1.1" xmlns="http://www.w3.org/2000/svg"><path d="M736.173549 446.925944c37.371814 72.081527 59.692514 153.173245 59.692514 218.701906 0 156.654455-126.96178 283.616235-283.616235 283.616235s-283.616235-126.96178-283.616235-283.616235c0-65.631049 22.3207-146.722767 59.692514-218.701906 22.627866-43.617515 42.286464-88.668469 58.566241-135.050474 29.692674-84.675316 92.559233-168.326747 165.35748-168.326747s135.664806 83.651431 165.35748 168.326747c16.279777 46.382005 35.938375 91.43296 58.566241 135.050474z m-91.125794 230.578975c0-73.310189-59.385349-190.749836-132.695538-190.749836s-132.797927 117.337258-132.797927 190.749836 59.487737 132.797927 132.797927 132.797927 132.695538-59.487737 132.695538-132.797927z" fill="#9AD14B" /><path d="M512.249828 486.652695c73.310189 0 132.695538 117.439647 132.695538 190.749836s-59.385349 132.797927-132.695538 132.797927-132.797927-59.487737-132.797927-132.797927 59.487737-190.749836 132.797927-190.749836z" fill="#B27214" /><path d="M591.600941 726.139472c-1.945382 0-3.993153-0.409554-5.938535-1.228662-7.781528-3.276433-11.365127-12.184235-8.088694-19.965764 3.685987-8.703025 5.528981-18.020382 5.52898-27.542515 0-25.187579-12.184235-62.252228-29.487897-90.101909-5.119427-8.191083-10.44363-15.35828-15.972611-21.501591-5.631369-6.2457-5.221815-15.870223 1.023885-21.501592s15.870223-5.221815 21.501592 1.023885c6.757643 7.371974 13.208121 16.075 19.249044 25.80191 20.682484 33.276273 34.095381 74.948406 34.095382 106.279297 0 13.617675-2.662102 26.928184-7.986306 39.419585-2.354936 5.836146-7.986306 9.317356-13.92484 9.317356z" fill="#FFFFFF" /><path d="M512.249828 471.499192c-38.702865 0-76.586622 26.621018-106.791239 75.050794-25.392356 40.750636-41.16019 90.921017-41.16019 130.954933 0 81.60366 66.347769 147.951429 147.951429 147.95143s147.951429-66.347769 147.951429-147.95143c0-40.033916-15.767834-90.204297-41.16019-130.954933-30.204617-48.429776-68.088374-75.050794-106.791239-75.050794z m0 323.445374c-64.811941 0-117.542035-52.730094-117.542035-117.542035 0-66.142992 54.982642-175.596333 117.542035-175.596333s117.542035 109.453341 117.542035 175.596333c0 64.811941-52.730094 117.542035-117.542035 117.542035z" fill="#333333" /><path d="M749.688835 439.861136c-22.423089-43.310349-41.87691-88.054138-57.644744-133.002704-29.180732-83.241877-90.409074-167.098085-164.538372-177.439327v-49.760827c0-8.39586-6.860032-15.255891-15.255891-15.255891s-15.255891 6.860032-15.255891 15.255891v49.760827c-74.129298 10.341242-135.255251 94.19745-164.538372 177.439327-15.767834 45.050954-35.221655 89.794743-57.644744 133.002704-38.498088 74.026909-61.433119 158.497448-61.433119 225.766714 0 164.743149 134.026589 298.769738 298.769737 298.769737s298.872126-134.026589 298.872127-298.769737c0-67.269266-22.935031-151.739805-61.330731-225.766714z m-237.439007 494.127057c-147.951429 0-268.360344-120.408914-268.360344-268.360343 0-62.661782 21.706369-141.808117 57.95191-211.739485 23.139808-44.539012 43.105572-90.613851 59.385349-136.995857 26.723407-76.177068 85.392036-158.190283 151.023085-158.190283s124.299678 82.013215 151.023085 158.190283c16.279777 46.382005 36.24554 92.456845 59.385349 136.995857 36.347929 69.931368 57.951909 149.077703 57.95191 211.739485 0 147.951429-120.408914 268.360344-268.360344 268.360343z" fill="#333333" /><path d="M512.352217 533.853808m-15.255892 0a15.255891 15.255891 0 1 0 30.511783 0 15.255891 15.255891 0 1 0-30.511783 0Z" fill="#FFFFFF" /></svg>